<?xml version="1.0" encoding="utf-8" ?>
<svg baseProfile="full" height="300mm" version="1.1" viewBox="0,0,200,300" width="200mm" xmlns="http://www.w3.org/2000/svg" xmlns:ev="http://www.w3.org/2001/xml-events" xmlns:xlink="http://www.w3.org/1999/xlink"><defs /><rect fill="#222222" height="300" width="200" x="0" y="0" /><text fill="#FFFFFF" style="font-size:12px; font-family:Arial; font-weight:bold;" x="10" y="20">Over 10km Runs</text><text fill="#FFFFFF" style="font-size:4px; font-family:Arial" x="10" y="280">ATHLETE</text><text fill="#FFFFFF" style="font-size:9px; font-family:Arial" x="10" y="290">Liang</text><text fill="#FFFFFF" style="font-size:4px; font-family:Arial" x="120" y="280">STATISTICS</text><text fill="#FFFFFF" style="font-size:3px; font-family:Arial" x="120" y="285">Number: 1</text><text fill="#FFFFFF" style="font-size:3px; font-family:Arial" x="120" y="290">Weekly: 1.0</text><text fill="#FFFFFF" style="font-size:3px; font-family:Arial" x="141" y="285">Total: 10.3 km</text><text fill="#FFFFFF" style="font-size:3px; font-family:Arial" x="141" y="290">Avg: 10.3 km</text><text fill="#FFFFFF" style="font-size:3px; font-family:Arial" x="167" y="285">Min: 10.3 km</text><text fill="#FFFFFF" style="font-size:3px; font-family:Arial" x="167" y="290">Max: 10.3 km</text><polyline fill="none" points="117.48828203231096,204.87124460330233 116.36000577360392,207.48412493476644 115.23172951117158,208.13734484976158 111.84690073505044,206.83090495038778 107.33379569277167,208.13734484976158 104.51310504227877,210.7502238508314 101.69241439178586,211.40344343381003 96.61517122387886,212.7098824013956 94.35861870273948,214.66954035544768 89.84551366046071,215.97597865574062 85.89654675498605,214.66954035544768 81.9475798420608,214.66954035544768 79.12688919529319,215.97597865574062 76.30619854480028,217.28241669246927 72.92136976495385,217.93563561094925 69.53654098510742,218.58885446423665 65.58757407218218,219.89529196638614 59.38205464184284,221.8549477220513 54.30481147393584,222.50816617486998 49.22756830602884,221.20172920357436 47.53515391796827,216.6291977087967 45.84273952618241,213.36310178693384 44.714463263750076,209.4437844841741 41.89377261325717,206.83090495038778 40.2013582251966,204.2180243525654 36.25239131599665,196.37937617162243 35.1241150572896,193.11326993443072 35.1241150572896,188.5407184069045 33.43170066550374,184.62138593010604 32.86756253615022,180.0488283461891 32.86756253615022,176.78271379042417 33.43170066550374,173.51659756805748 33.43170066550374,170.25047968467698 32.86756253615022,166.9843601374887 31.73928627371788,163.06501448526978 32.86756253615022,159.14566643396392 33.43170066550374,154.57309068134055 32.86756253615022,150.00051166815683 31.73928627371788,146.7343818033114 30.04687188565731,142.81502376962453 30.611010015010834,139.5488902456127 31.175148148089647,134.32307314500213 32.86756253615022,130.4037075266242 33.995838794857264,127.13756768032908 32.86756253615022,124.52465460402891 33.995838794857264,121.25851176073775 38.50894383341074,116.68590898718685 40.76549635455012,114.72622108785436 45.2786013931036,112.11330295167863 48.66343017667532,110.15361365303397 53.176535215228796,106.23423325968906 55.9972258657217,102.3148504672572 59.946192774921656,99.04869630979374 62.20274529606104,97.08900301717222 65.58757407218218,95.1293091266416 68.9724028557539,92.51638300577179 71.79309350252151,90.55668771686032 75.17792228609324,87.29052757052705 78.56275106593966,85.33083068253472 83.07585610449314,85.33083068253472 86.46068488433957,84.67759825708345 89.28137553110719,84.67759825708345 92.66620431467891,85.33083068253472 97.17930935323238,85.33083068253472 101.12827626243234,84.67759825708345 105.6413813047111,83.3711331980303 110.15448634326458,82.06466787494719 114.10345325246453,81.41143511189148 118.05242016166449,80.75820228457451 122.56552520394325,78.79850340215489 126.5144921131432,78.79850340215489 130.46345902234316,77.49203714681789 133.8482878021896,76.18557062698528 137.79725471138954,75.53233726415783 142.3103597536683,75.53233726415783 144.00277414172888,80.10496939113364 145.13105040043592,84.02436576085165 146.25932665914297,87.94375973194838 146.82346479222178,91.20991954533383 146.25932665914297,95.1293091266416 146.82346479222178,98.39546527946368 147.95174105092883,102.96808109804988 150.20829357206821,106.23423325968906 151.90070796385407,110.80684348754585 151.90070796385407,115.37945045391098 153.02898422256112,118.6455962904729 154.15726048126817,122.56496909912676 155.84967487305403,125.83111127465963 158.10622739046812,129.75047968979925 157.5420892611146,133.66984570911154 156.41381300240755,137.5892093325965 157.5420892611146,141.50857056071982 158.67036551982164,144.7747030868195 160.3627799116075,148.69405992235988 161.49105617031455,152.61341435974464 162.05519430339336,157.1859915116802 162.05519430339336,160.45211604936048 163.74760869145393,163.71823892602697 166.00416121259332,167.63758418057114 167.13243747130036,172.21015061577782 166.00416121259332,176.78271379042417 163.18347055837512,180.0488283461891 159.23450365290046,181.35527370357886 155.84967487305403,183.31494123814628 152.4648460932076,185.27460817527026 149.6441554389894,187.2342745140195 147.3876029253006,189.8471620315686 143.43863601237535,192.4600484878756 140.61794536188245,194.41971262777224 137.23311658203602,195.72615505754948 133.28414966911077,195.72615505754948 129.3351827636361,196.37937617162243 124.82207772135735,195.72615505754948 121.4372489452362,195.0729338764213 118.05242016166449,197.0325972205028 114.10345325246453,198.99225996388122 110.15448634326458,200.95192210981622 106.20551943406463,202.25836320593953 102.8206906542182,204.2180243525654 99.43586187064648,206.83090495038778 96.05103309452534,208.7905646986328 93.23034244403243,210.7502238508314 89.28137553110719,212.7098824013956 85.89654675498605,214.0163211049512 81.9475798420608,214.66954035544768 77.99861293658614,214.0163211049512 74.61378415673971,212.7098824013956 70.66481724381447,214.66954035544768 67.84412659332156,215.32275953842327 63.331021554768085,217.28241669246927 59.38205464184284,219.24207324860618 55.9972258657217,221.20172920357436 52.04825895652175,223.16138456203043 48.66343017667532,224.4678211323917 44.714463263750076,225.12103931978345 40.76549635455012,223.16138456203043 39.07308196648955,219.24207324860618 38.50894383341074,215.32275953842327 38.50894383341074,211.40344343381003 35.688253186643124,207.48412493476644 34.55997692793608,204.2180243525654 33.43170066550374,199.6454807445407 33.995838794857264,196.37937617162243 32.86756253615022,193.11326993443072 33.43170066550374,189.19394025253132 31.73928627371788,185.9278303552419 31.175148148089647,182.6617187941447 31.175148148089647,177.43593683373183 31.175148148089647,172.8633741256781 30.611010015010834,169.59725590934977 29.482733756303787,165.67791185202077 30.04687188565731,161.75856540119275 30.611010015010834,158.49244152754545 30.611010015010834,153.91986530739814 30.611010015010834,150.65373744023964 31.175148148089647,147.38760790787637 28.918595623224974,142.81502376962453 28.918595623224974,138.89566334243864 28.918595623224974,134.97630051709712 29.482733756303787,131.0569352968596 29.482733756303787,127.13756768032908 30.04687188565731,124.52465460402891 32.86756253615022,121.25851176073775 36.25239131599665,117.99236725689843 39.07308196648955,114.07299165287986 42.45791074633598,110.80684348754585 45.84273952618241,108.84715378843248 49.22756830602884,104.92777259508148 50.91998269408941,102.3148504672572 54.868949603289366,99.04869630979374 58.253778383135796,97.74223418207839 61.638607166707516,95.78254049131647 65.02343594655395,94.47607769584283 68.40826472640038,92.51638300577179 71.79309350252151,90.55668771686032 75.74206041172147,89.25022385781631 79.12688919529319,87.94375973194838 84.20413236320019,87.29052757052705 87.58896114304662,87.29052757052705 91.53792805224657,87.94375973194838 95.48689496517181,87.94375973194838 98.87172374501824,87.29052757052705 102.25655252113938,87.29052757052705 105.6413813047111,86.63729534065351 109.02621008455753,85.33083068253472 112.97517699375749,84.02436576085165 116.92414390295744,83.3711331980303 120.30897268280387,80.75820228457451 123.6938014626503,78.79850340215489 126.5144921131432,77.49203714681789 129.89932088926435,74.87910383800045 133.8482878021896,74.22587034478784 137.79725471138954,73.57263678452 141.7462216205895,72.26616946607828 145.13105040043592,70.30646798480302 147.95174105092883,73.57263678452 148.51587918028235,78.14527030708268 149.6441554389894,81.41143511189148 150.77243170142174,85.33083068253472 151.90070796385407,89.25022385781631 149.08001730963588,94.47607769584283 149.08001730963588,98.39546527946368 149.6441554389894,102.3148504672572 151.33656983077526,106.23423325968906 153.59312235191464,109.5003837547265 154.15726048126817,113.41976215410978 154.7213986106217,116.68590898718685 155.84967487305403,121.25851176073775 156.41381300240755,124.52465460402891 159.23450365290046,127.79079578164965 159.79864178225398,131.7101629995741 158.10622739046812,135.62952782167122 156.97795113176107,138.89566334243864 157.5420892611146,142.16179719893262 159.23450365290046,145.4279293930158 161.49105617031455,148.69405992235988 162.6193324290216,151.96018878556788 163.18347055837512,155.87954122805968 163.18347055837512,159.79889127472416 163.18347055837512,163.06501448526978 165.4400230795145,166.331136028748 166.56829934194684,170.25047968467698 167.6965756006539,173.51659756805748 167.13243747130036,176.78271379042417 165.4400230795145,179.3956055692397 162.6193324290216,181.35527370357886 159.79864178225398,182.6617187941447 156.41381300240755,184.62138593010604 154.15726048126817,187.2342745140195 151.33656983077526,189.19394025253132 147.95174105092883,191.15360539220273 145.13105040043592,193.7664913139306 141.7462216205895,194.41971262777224 137.79725471138954,196.37937617162243 134.4124259352684,197.0325972205028 131.02759715169668,198.3390391143039 127.07863024249673,197.6858182004653 123.6938014626503,197.0325972205028 120.30897268280387,197.0325972205028 116.92414390295744,199.6454807445407 112.97517699375749,200.95192210981622 110.15448634326458,202.91158365411684 106.20551943406463,203.56480403756723 103.38482878357172,205.52446478651837 100.00000000372529,207.48412493476644 97.17930935323238,210.09700420172885 93.79448057338595,212.05666295159608 90.97378992661834,214.0163211049512 88.15309927240014,215.32275953842327 84.76827049255371,217.28241669246927 81.9475798420608,217.93563561094925 77.99861293658614,218.58885446423665 74.61378415673971,219.24207324860618 71.79309350252151,220.54851061943918 68.40826472640038,221.8549477220513 65.02343594655395,223.16138456203043 61.638607166707516,223.16138456203043 57.68964025378227,224.4678211323917 53.74067334458232,224.4678211323917 49.22756830602884,226.42747549293563 45.2786013931036,223.81460288073868 43.0220488794148,220.54851061943918 41.89377261325717,216.6291977087967 42.45791074633598,212.7098824013956 39.63722009584308,208.7905646986328 37.38066757470369,204.87124460330233 36.25239131599665,199.6454807445407 36.25239131599665,195.72615505754948 35.688253186643124,191.8068269728683 35.688253186643124,188.5407184069045 32.303424406796694,185.27460817527026 31.73928627371788,180.70205105887726 31.73928627371788,176.78271379042417 31.73928627371788,173.51659756805748 32.303424406796694,169.59725590934977 30.611010015010834,164.37146330066025 29.482733756303787,160.45211604936048 30.611010015010834,155.87954122805968 31.175148148089647,151.96018878556788 31.175148148089647,148.69405992235988 30.611010015010834,145.4279293930158 28.918595623224974,141.50857056071982 28.35445749759674,137.5892093325965 27.790319364517927,133.66984570911154 28.35445749759674,130.4037075266242 28.918595623224974,126.4843395119533 29.482733756303787,122.56496909912676 31.175148148089647,119.95205415971577 31.73928627371788,117.33913815487176 33.995838794857264,114.72622108785436 37.38066757470369,112.11330295167863 40.76549635455012,109.5003837547265 44.15032513812184,107.54069365607575 47.53515391796827,106.23423325968906 50.35584456473589,104.27454216172919 53.74067334458232,102.3148504672572 57.68964025378227,100.3551581739448 61.0744690336287,97.74223418207839 62.20274529606104,95.1293091266416 65.02343594655395,93.16961463633925 68.40826472640038,91.20991954533383 72.35723163187504,90.55668771686032 75.17792228609324,89.25022385781631 76.87033667042851,86.63729534065351 80.25516545400023,85.33083068253472 84.20413236320019,84.67759825708345 88.15309927240014,85.33083068253472 91.53792805224657,85.33083068253472 95.48689496517181,86.63729534065351 98.87172374501824,85.98406304465607 102.25655252113938,84.67759825708345 105.6413813047111,84.02436576085165 109.02621008455753,83.3711331980303 112.97517699375749,82.71790056861937 116.36000577360392,80.10496939113364 119.74483455345035,77.49203714681789 122.56552520394325,76.18557062698528 125.38621585443616,74.87910383800045 128.7710446305573,73.57263678452 131.5917352810502,72.91940315626562 135.54070219397545,71.61293570464477 138.92553097382188,70.95970187801868 141.7462216205895,69.6532340249978 145.13105040043592,70.95970187801868 145.69518853351474,73.57263678452 146.25932665914297,76.83880391903222 147.3876029253006,80.75820228457451 147.3876029253006,84.67759825708345 149.08001730963588,88.59699182957411 147.95174105092883,91.86315131001174 148.51587918028235,97.08900301717222 149.08001730963588,101.00838900450617 150.20829357206821,103.62131166225299 150.77243170142174,106.8874634904787 151.90070796385407,110.15361365303397 153.02898422256112,114.07299165287986 153.02898422256112,117.99236725689843 154.7213986106217,120.60528299352154 156.41381300240755,124.52465460402891 157.5420892611146,127.79079578164965 156.97795113176107,131.0569352968596 156.41381300240755,134.97630051709712 156.97795113176107,139.5488902456127 158.10622739046812,143.46825027558953 160.3627799116075,146.7343818033114 161.49105617031455,150.00051166815683 162.6193324290216,153.2666398677975 162.6193324290216,157.1859915116802 162.05519430339336,160.45211604936048 163.74760869145393,163.71823892602697 165.4400230795145,166.9843601374887 167.13243747130036,170.90370339620858 166.56829934194684,174.1698209461756 163.74760869145393,176.78271379042417 160.92691804096103,178.74238272290677 158.10622739046812,180.70205105887726 155.2855367399752,183.31494123814628 152.4648460932076,185.9278303552419 149.6441554389894,189.19394025253132 147.3876029253006,191.8068269728683 144.5669122710824,194.41971262777224 141.7462216205895,196.37937617162243 138.36139284074306,198.3390391143039 134.97656406089664,199.6454807445407 131.02759715169668,198.99225996388122 127.07863024249673,199.6454807445407 123.6938014626503,200.95192210981622 120.87311081215739,202.25836320593953 117.48828203231096,204.2180243525654 114.10345325246453,206.17768490174785 111.28276260197163,207.48412493476644 107.8979338221252,208.7905646986328 103.94896691292524,210.7502238508314 100.56413813307881,212.05666295159608 97.7434474825859,214.0163211049512 94.35861870273948,214.66954035544768 91.53792805224657,216.6291977087967 87.58896114304662,217.93563561094925 84.20413236320019,217.93563561094925 80.81930358335376,218.58885446423665 76.87033667042851,218.58885446423665 73.48550789803267,219.89529196638614 70.66481724381447,221.20172920357436 67.27998846396804,222.50816617486998 64.45929781347513,223.81460288073868 61.0744690336287,225.12103931978345 58.253778383135796,226.42747549293563 54.868949603289366,228.38712925184518 52.04825895652175,229.0403470378369 48.66343017667532,231.0 45.2786013931036,231.0 41.32963448390365,229.0403470378369 39.07308196648955,226.42747549293563 38.50894383341074,221.20172920357436 38.50894383341074,217.93563561094925 37.94480570778251,213.36310178693384 36.25239131599665,209.4437844841741 34.55997692793608,205.52446478651837 33.43170066550374,201.60514269117266 32.86756253615022,197.6858182004653 33.43170066550374,193.7664913139306 33.43170066550374,189.8471620315686 31.175148148089647,186.58105246722698 30.04687188565731,183.31494123814628 30.611010015010834,178.74238272290677 31.175148148089647,176.12949067819864 31.73928627371788,171.556927037891 31.175148148089647,167.63758418057114 29.482733756303787,164.37146330066025 29.482733756303787,160.45211604936048 30.04687188565731,157.1859915116802 30.611010015010834,153.91986530739814 30.04687188565731,150.65373744023964 30.04687188565731,147.38760790787637 28.918595623224974,143.46825027558953 27.790319364517927,138.89566334243864 28.918595623224974,135.62952782167122 29.482733756303787,131.7101629995741 30.04687188565731,128.44402381870896 30.611010015010834,125.17788297217339 29.482733756303787,121.25851176073775 29.482733756303787,117.99236725689843 32.86756253615022,115.37945045391098 36.25239131599665,111.46007325313985 39.63722009584308,108.19392375601456 42.45791074633598,106.8874634904787 45.84273952618241,105.5810029595159 49.22756830602884,102.3148504672572 52.04825895652175,100.3551581739448 55.9972258657217,98.39546527946368 58.253778383135796,95.78254049131647 61.638607166707516,93.82284619938582 64.45929781347513,91.20991954533383 68.40826472640038,89.9034558199346 71.79309350252151,88.59699182957411 75.17792228609324,87.94375973194838 78.56275106593966,86.63729534065351 81.9475798420608,85.98406304465607 85.89654675498605,85.33083068253472 89.28137553110719,85.33083068253472 93.23034244403243,85.33083068253472 96.05103309452534,84.67759825708345 99.43586187064648,84.67759825708345 102.25655252113938,83.3711331980303 105.6413813047111,82.71790056861937 109.59034821391106,82.71790056861937 112.41103886067867,80.75820228457451 115.23172951117158,80.10496939113364 118.61655829101801,78.79850340215489 122.00138707458973,76.83880391903222 125.38621585443616,76.83880391903222 128.7710446305573,74.87910383800045 132.15587341040373,74.22587034478784 135.54070219397545,72.91940315626562 138.92553097382188,72.26616946607828 142.87449787929654,71.61293570464477 145.69518853351474,69.6532340249978 148.51587918028235,73.57263678452 148.51587918028235,77.49203714681789 149.6441554389894,81.41143511189148 150.77243170142174,84.67759825708345 151.33656983077526,89.25022385781631 150.20829357206821,92.51638300577179 149.6441554389894,97.08900301717222 150.20829357206821,100.3551581739448 150.77243170142174,104.27454216172919 152.4648460932076,107.54069365607575 154.7213986106217,110.80684348754585 155.2855367399752,114.72622108785436 155.2855367399752,117.99236725689843 155.84967487305403,121.25851176073775 156.41381300240755,124.52465460402891 158.67036551982164,127.79079578164965 160.3627799116075,131.0569352968596 159.23450365290046,134.97630051709712 158.10622739046812,138.24243636988103 158.67036551982164,141.50857056071982 160.3627799116075,144.7747030868195 161.49105617031455,148.69405992235988 161.49105617031455,151.96018878556788 163.18347055837512,155.2263159886934 164.31174682080746,158.49244152754545 163.74760869145393,161.1053407578729 164.31174682080746,164.37146330066025 164.87588495388627,168.2908081561327 166.56829934194684,170.90370339620858 167.13243747130036,174.1698209461756 166.56829934194684,177.43593683373183 164.31174682080746,181.35527370357886 160.92691804096103,183.31494123814628 158.10622739046812,184.62138593010604 155.2855367399752,186.58105246722698 152.4648460932076,189.8471620315686 149.6441554389894,192.4600484878756 146.82346479222178,194.41971262777224 144.5669122710824,197.0325972205028 141.7462216205895,199.6454807445407 138.36139284074306,201.60514269117266 134.97656406089664,202.91158365411684 131.02759715169668,201.60514269117266 127.07863024249673,200.95192210981622 123.12966333329678,201.60514269117266 119.74483455345035,203.56480403756723 116.36000577360392,205.52446478651837 114.10345325246453,206.83090495038778 110.7186244726181,208.13734484976158 107.8979338221252,209.4437844841741 104.51310504227877,210.7502238508314 101.12827626243234,212.05666295159608 98.30758561193943,213.36310178693384 94.922756832093,214.66954035544768 92.10206618532538,215.97597865574062 88.71723740175366,217.28241669246927 84.20413236320019,218.58885446423665 80.81930358335376,219.24207324860618 77.43447480350733,219.24207324860618 73.48550789803267,219.89529196638614 70.10067911446095,221.20172920357436 66.71585033461452,221.8549477220513 64.45929781347513,223.16138456203043 61.0744690336287,224.4678211323917 57.68964025378227,225.774257438723 54.868949603289366,227.0806934782304 51.484120823442936,228.38712925184518 48.66343017667532,229.69356475956738 45.2786013931036,230.34678241144866 41.89377261325717,229.69356475956738 39.63722009584308,225.12103931978345 39.07308196648955,221.20172920357436 37.94480570778251,215.97597865574062 37.38066757470369,212.05666295159608 35.688253186643124,208.7905646986328 33.995838794857264,203.56480403756723 33.43170066550374,200.95192210981622 32.303424406796694,196.37937617162243 31.175148148089647,193.7664913139306 29.482733756303787,189.8471620315686 28.35445749759674,185.9278303552419 29.482733756303787,182.00849628122523 30.04687188565731,178.08915981277823 30.611010015010834,174.82304425770417 30.611010015010834,170.25047968467698 28.918595623224974,167.63758418057114 29.482733756303787,164.37146330066025 31.175148148089647,159.14566643396392 31.73928627371788,155.2263159886934 31.175148148089647,151.30696314619854 30.611010015010834,148.04083394771442 28.35445749759674,143.46825027558953 28.35445749759674,140.2021170849912 28.918595623224974,136.2827550577931 29.482733756303787,133.01661820616573 30.04687188565731,129.75047968979925 30.04687188565731,126.4843395119533 28.918595623224974,122.56496909912676 28.918595623224974,119.2988252597861 30.611010015010834,116.68590898718685 33.995838794857264,114.07299165287986 37.94480570778251,112.11330295167863 41.32963448390365,110.15361365303397 44.714463263750076,109.5003837547265 48.099292047321796,107.54069365607575 50.91998269408941,106.23423325968906 54.30481147393584,102.96808109804988 57.12550212442875,100.3551581739448 59.946192774921656,98.39546527946368 62.76688342541456,95.1293091266416 66.15171220526099,93.82284619938582 69.53654098510742,91.86315131001174 72.35723163187504,89.9034558199346 75.74206041172147,89.25022385781631 79.12688919529319,87.94375973194838 83.07585610449314,87.29052757052705 86.46068488433957,85.98406304465607 89.84551366046071,85.98406304465607 94.922756832093,85.33083068253472 97.7434474825859,84.67759825708345 102.25655252113938,83.3711331980303 105.07724317535758,82.71790056861937 109.02621008455753,82.06466787494719 112.41103886067867,81.41143511189148 116.36000577360392,80.10496939113364 119.18069642037153,79.4517364287749 122.56552520394325,78.14527030708268 125.95035398378968,77.49203714681789 129.3351827636361,76.18557062698528 132.15587341040373,74.22587034478784 135.54070219397545,72.26616946607828 138.92553097382188,70.30646798480302 142.3103597536683,69.6532340249978 145.69518853351474,69.0 148.51587918028235,71.61293570464477 148.51587918028235,76.18557062698528 150.20829357206821,80.10496939113364 151.33656983077526,83.3711331980303 150.77243170142174,86.63729534065351 150.20829357206821,91.20991954533383 150.20829357206821,95.1293091266416 150.77243170142174,98.39546527946368 151.33656983077526,101.66161976987496 152.4648460932076,104.92777259508148 154.7213986106217,108.19392375601456 156.41381300240755,111.46007325313985 156.41381300240755,115.37945045391098 156.41381300240755,118.6455962904729 155.84967487305403,121.25851176073775 156.97795113176107,124.52465460402891 159.23450365290046,127.79079578164965 160.3627799116075,131.0569352968596 160.92691804096103,134.97630051709712 159.23450365290046,137.5892093325965 158.67036551982164,141.50857056071982 160.3627799116075,144.12147671543062 161.49105617031455,148.04083394771442 163.18347055837512,151.30696314619854 164.87588495388627,154.57309068134055 165.4400230795145,157.83921655174345 164.31174682080746,161.1053407578729 165.4400230795145,165.67791185202077 167.6965756006539,169.59725590934977 168.82485185936093,172.8633741256781 168.82485185936093,176.78271379042417 165.4400230795145,178.74238272290677 162.6193324290216,182.00849628122523 159.79864178225398,183.96816361881793 156.97795113176107,185.9278303552419 154.15726048126817,187.8874964946881 151.33656983077526,190.5003837463446 149.08001730963588,193.11326993443072 145.69518853351474,195.72615505754948 143.43863601237535,197.0325972205028 140.05380723252892,198.3390391143039 136.6689784526825,199.6454807445407 133.28414966911077,200.2987014609389 129.3351827636361,200.95192210981622 125.95035398378968,200.95192210981622 122.00138707458973,200.95192210981622 118.61655829101801,202.91158365411684 115.7958676405251,204.87124460330233 112.97517699375749,206.83090495038778 110.15448634326458,208.7905646986328 107.33379569277167,209.4437844841741 104.51310504227877,211.40344343381003 101.69241439178586,213.36310178693384 98.87172374501824,214.0163211049512 95.48689496517181,214.66954035544768 92.10206618532538,215.97597865574062 88.71723740175366,215.32275953842327 85.89654675498605,216.6291977087967 82.51171797513962,217.28241669246927 79.69102732464671,217.93563561094925 76.30619854480028,218.58885446423665 72.92136976495385,218.58885446423665 69.53654098510742,219.89529196638614 66.71585033461452,221.20172920357436 63.331021554768085,221.8549477220513 59.946192774921656,222.50816617486998 57.12550212442875,223.81460288073868 53.74067334458232,224.4678211323917 50.35584456473589,226.42747549293563 47.53515391796827,227.7339113992639 44.714463263750076,228.38712925184518 41.32963448390365,227.7339113992639 39.63722009584308,225.12103931978345 38.50894383341074,220.54851061943918 37.94480570778251,217.28241669246927 36.81652944535017,214.0163211049512 35.688253186643124,210.7502238508314 34.55997692793608,206.83090495038778 32.86756253615022,203.56480403756723 32.86756253615022,199.6454807445407 32.86756253615022,196.37937617162243 35.688253186643124,195.72615505754948 30.611010015010834,191.8068269728683 30.04687188565731,188.5407184069045 30.611010015010834,183.31494123814628 30.611010015010834,179.3956055692397 31.175148148089647,174.82304425770417 29.482733756303787,171.556927037891 29.482733756303787,167.63758418057114 30.611010015010834,162.41178997512907 31.175148148089647,158.49244152754545 30.611010015010834,153.91986530739814 29.482733756303787,151.30696314619854 28.35445749759674,148.04083394771442 28.35445749759674,144.12147671543062 28.918595623224974,139.5488902456127 28.35445749759674,135.62952782167122 28.35445749759674,132.36339063709602 28.918595623224974,129.09725178731605 31.73928627371788,127.13756768032908 35.1241150572896,124.52465460402891 37.94480570778251,120.60528299352154 41.32963448390365,118.6455962904729 44.714463263750076,116.68590898718685 48.099292047321796,114.07299165287986 51.484120823442936,112.76653258595616 54.868949603289366,110.80684348754585 58.253778383135796,108.19392375601456 61.638607166707516,106.23423325968906 65.02343594655395,104.92777259508148 67.84412659332156,102.96808109804988 71.22895537316799,102.3148504672572 74.61378415673971,101.00838900450617 77.99861293658614,99.04869630979374 80.81930358335376,97.08900301717222 84.76827049255371,96.43577178753912 88.15309927240014,95.1293091266416 90.97378992661834,95.1293091266416 93.79448057338595,94.47607769584283 97.17930935323238,93.82284619938582 100.00000000372529,92.51638300577179 103.38482878357172,91.20991954533383 106.20551943406463,90.55668771686032 109.02621008455753,89.9034558199346 113.53931512311101,89.25022385781631 116.36000577360392,87.94375973194838 119.74483455345035,86.63729534065351 122.00138707458973,84.67759825708345 124.82207772135735,84.02436576085165 128.20690650120378,82.71790056861937 131.5917352810502,81.41143511189148 136.10484032332897,80.10496939113364 139.4896691031754,78.79850340215489 142.3103597536683,77.49203714681789 145.69518853351474,76.83880391903222 148.51587918028235,76.83880391903222 150.77243170142174,80.10496939113364 151.33656983077526,83.3711331980303 152.4648460932076,85.98406304465607 152.4648460932076,89.25022385781631 152.4648460932076,92.51638300577179 151.90070796385407,96.43577178753912 150.20829357206821,99.04869630979374 151.90070796385407,103.62131166225299 151.90070796385407,106.23423325968906 153.59312235191464,110.80684348754585 154.7213986106217,114.72622108785436 156.41381300240755,118.6455962904729 156.97795113176107,123.21819766657427 158.67036551982164,125.83111127465963 160.92691804096103,129.75047968979925 162.05519430339336,133.66984570911154 161.49105617031455,137.5892093325965 159.79864178225398,140.8553438554518 161.49105617031455,144.12147671543062 163.18347055837512,146.7343818033114 164.31174682080746,149.34728582762182 165.4400230795145,152.61341435974464 166.00416121259332,155.87954122805968 166.00416121259332,159.79889127472416 165.4400230795145,163.06501448526978 166.56829934194684,166.9843601374887 169.38898999243975,170.90370339620858 170.5172662511468,173.51659756805748 169.95312812179327,176.78271379042417 167.6965756006539,179.3956055692397 164.87588495388627,182.00849628122523 162.05519430339336,183.96816361881793 159.23450365290046,186.58105246722698 155.84967487305403,189.19394025253132 153.02898422256112,191.15360539220273 149.6441554389894,193.11326993443072 146.82346479222178,195.0729338764213 144.00277414172888,196.37937617162243 140.61794536188245,197.6858182004653 137.23311658203602,199.6454807445407 134.4124259352684,200.95192210981622 130.46345902234316,200.2987014609389 126.5144921131432,200.95192210981622 123.12966333329678,201.60514269117266 120.30897268280387,203.56480403756723 117.48828203231096,206.17768490174785 112.97517699375749,208.13734484976158 110.15448634326458,208.7905646986328 106.76965756341815,209.4437844841741 103.94896691292524,210.09700420172885 100.00000000372529,211.40344343381003 97.17930935323238,212.7098824013956 94.35861870273948,213.36310178693384 90.97378992661834,214.0163211049512 87.58896114304662,214.66954035544768 84.20413236320019,216.6291977087967 81.38344171643257,217.28241669246927 77.99861293658614,217.28241669246927 74.61378415673971,217.28241669246927 71.22895537316799,218.58885446423665 68.40826472640038,219.89529196638614 65.58757407218218,221.20172920357436 62.20274529606104,222.50816617486998 59.38205464184284,225.12103931978345 56.561363995075226,225.774257438723 53.176535215228796,225.12103931978345 49.791706435382366,225.774257438723 46.97101578488946,227.0806934782304 43.58618700504303,226.42747549293563 41.32963448390365,223.81460288073868 39.63722009584308,220.54851061943918 37.94480570778251,217.28241669246927 37.38066757470369,214.0163211049512 36.81652944535017,210.09700420172885 34.55997692793608,206.83090495038778 33.43170066550374,202.91158365411684 32.86756253615022,199.6454807445407 32.303424406796694,196.37937617162243 32.86756253615022,193.11326993443072 30.611010015010834,190.5003837463446 29.482733756303787,187.2342745140195 29.482733756303787,183.96816361881793 30.611010015010834,180.0488283461891 30.611010015010834,176.12949067819864 30.04687188565731,173.51659756805748 28.35445749759674,170.25047968467698 28.918595623224974,165.67791185202077 30.04687188565731,161.1053407578729 30.04687188565731,156.53276640316471 30.611010015010834,153.2666398677975 29.482733756303787,149.34728582762182 30.04687188565731,144.7747030868195 30.04687188565731,140.8553438554518 30.611010015010834,136.93598222965375 30.611010015010834,133.01661820616573 30.04687188565731,129.09725178731605 30.611010015010834,125.83111127465963 33.43170066550374,122.56496909912676 36.25239131599665,120.60528299352154 39.63722009584308,117.99236725689843 43.58618700504303,115.37945045391098 46.406877651810646,113.41976215410978 49.791706435382366,110.80684348754585 52.61239708587527,106.8874634904787 55.9972258657217,104.92777259508148 58.81791651621461,103.62131166225299 61.638607166707516,101.66161976987496 65.02343594655395,99.70192727493122 68.40826472640038,98.39546527946368 71.79309350252151,96.43577178753912 74.61378415673971,94.47607769584283 78.56275106593966,95.1293091266416 81.9475798420608,93.82284619938582 85.89654675498605,92.51638300577179 89.28137553110719,91.20991954533383 93.23034244403243,91.86315131001174 96.61517122387886,91.86315131001174 99.43586187064648,90.55668771686032 103.38482878357172,89.9034558199346 107.33379569277167,88.59699182957411 110.15448634326458,87.94375973194838 112.97517699375749,86.63729534065351 116.36000577360392,85.33083068253472 119.18069642037153,83.3711331980303 122.00138707458973,82.06466787494719 125.38621585443616,81.41143511189148 128.20690650120378,79.4517364287749 131.5917352810502,78.14527030708268 134.4124259352684,76.83880391903222 137.79725471138954,75.53233726415783 141.18208349123597,75.53233726415783 144.5669122710824,74.87910383800045 147.95174105092883,74.22587034478784 149.6441554389894,78.14527030708268 149.08001730963588,82.71790056861937 150.20829357206821,85.33083068253472 150.77243170142174,88.59699182957411 151.33656983077526,91.86315131001174 150.20829357206821,95.78254049131647 151.90070796385407,99.70192727493122 152.4648460932076,102.96808109804988 154.7213986106217,105.5810029595159 156.41381300240755,109.5003837547265 156.97795113176107,112.76653258595616 157.5420892611146,116.03267975430936 158.10622739046812,119.2988252597861 159.23450365290046,122.56496909912676 160.3627799116075,125.83111127465963 161.49105617031455,128.44402381870896 162.6193324290216,131.7101629995741 160.92691804096103,135.62952782167122 160.92691804096103,138.89566334243864 160.92691804096103,142.81502376962453 162.6193324290216,146.08115563122556 163.74760869145393,149.34728582762182 164.87588495388627,152.61341435974464 166.00416121259332,155.2263159886934 166.56829934194684,159.14566643396392 166.56829934194684,162.41178997512907 167.6965756006539,166.331136028748 169.38898999243975,168.94403206557035 169.95312812179327,172.21015061577782 169.95312812179327,176.12949067819864 168.26071372628212,179.3956055692397 164.31174682080746,180.70205105887726 162.05519430339336,182.6617187941447 159.79864178225398,185.27460817527026 156.97795113176107,187.2342745140195 153.59312235191464,189.8471620315686 150.77243170142174,191.8068269728683 147.95174105092883,194.41971262777224 145.13105040043592,195.72615505754948 142.3103597536683,197.0325972205028 138.92553097382188,198.99225996388122 136.10484032332897,200.95192210981622 132.15587341040373,202.91158365411684 128.7710446305573,202.91158365411684 125.95035398378968,202.91158365411684 122.00138707458973,203.56480403756723 119.18069642037153,206.17768490174785 115.23172951117158,208.13734484976158 112.41103886067867,209.4437844841741 109.59034821391106,210.7502238508314 106.20551943406463,211.40344343381003 102.8206906542182,213.36310178693384 100.00000000372529,214.0163211049512 96.61517122387886,214.0163211049512 92.66620431467891,215.32275953842327 89.84551366046071,216.6291977087967 87.0248230136931,217.28241669246927 84.20413236320019,217.28241669246927 80.81930358335376,217.93563561094925 76.87033667042851,217.28241669246927 74.0496460236609,217.93563561094925 70.66481724381447,219.24207324860618 67.84412659332156,221.20172920357436 63.89515968412161,221.8549477220513 60.51033090427518,222.50816617486998 57.68964025378227,224.4678211323917 53.176535215228796,224.4678211323917 48.66343017667532,225.12103931978345 45.84273952618241,225.774257438723 42.45791074633598,224.4678211323917 40.76549635455012,220.54851061943918 39.07308196648955,217.28241669246927 38.50894383341074,212.7098824013956 36.81652944535017,208.7905646986328 34.55997692793608,204.2180243525654 34.55997692793608,200.95192210981622 33.995838794857264,197.0325972205028 32.86756253615022,193.7664913139306 30.04687188565731,191.15360539220273 30.611010015010834,187.8874964946881 31.175148148089647,183.96816361881793 31.175148148089647,180.70205105887726 31.175148148089647,177.43593683373183 30.611010015010834,173.51659756805748 30.04687188565731,170.25047968467698 30.04687188565731,166.9843601374887 31.175148148089647,163.71823892602697 31.175148148089647,159.14566643396392 31.73928627371788,155.87954122805968 29.482733756303787,148.04083394771442 30.04687188565731,145.4279293930158 30.04687188565731,142.16179719893262 31.175148148089647,137.5892093325965 32.303424406796694,134.32307314500213 32.303424406796694,130.4037075266242 30.611010015010834,127.79079578164965 31.175148148089647,121.25851176073775 33.995838794857264,119.95205415971577 36.81652944535017,116.68590898718685 40.2013582251966,115.37945045391098 43.58618700504303,113.41976215410978 46.97101578488946,112.11330295167863 50.35584456473589,111.46007325313985 53.74067334458232,109.5003837547265 56.561363995075226,108.19392375601456 59.946192774921656,106.23423325968906 63.331021554768085,104.27454216172919 66.71585033461452,102.96808109804988 70.66481724381447,101.66161976987496 74.61378415673971,99.04869630979374 77.99861293658614,98.39546527946368 81.38344171643257,96.43577178753912 85.33240862190723,95.1293091266416 89.28137553110719,94.47607769584283 92.66620431467891,93.82284619938582 96.61517122387886,92.51638300577179 100.56413813307881,90.55668771686032 105.07724317535758,90.55668771686032 108.46207195520401,89.9034558199346 112.41103886067867,88.59699182957411 115.23172951117158,86.63729534065351 118.61655829101801,84.02436576085165 122.56552520394325,84.67759825708345 125.95035398378968,82.71790056861937 129.3351827636361,82.06466787494719 133.28414966911077,81.41143511189148 137.23311658203602,79.4517364287749 140.05380723252892,78.14527030708268 144.5669122710824,77.49203714681789 148.51587918028235,76.18557062698528 151.90070796385407,77.49203714681789 153.02898422256112,80.10496939113364 154.15726048126817,84.02436576085165 155.84967487305403,87.29052757052705 156.41381300240755,90.55668771686032 157.5420892611146,93.82284619938582 156.97795113176107,99.04869630979374 157.5420892611146,104.27454216172919 158.67036551982164,108.84715378843248 160.3627799116075,112.76653258595616 159.23450365290046,117.99236725689843 159.79864178225398,121.91174046322703 160.92691804096103,124.52465460402891 163.18347055837512,129.09725178731605 162.6193324290216,133.01661820616573 160.3627799116075,135.62952782167122 160.3627799116075,141.50857056071982 160.92691804096103,146.08115563122556 162.6193324290216,150.00051166815683 164.87588495388627,153.2666398677975 165.4400230795145,157.1859915116802 164.31174682080746,161.75856540119275 166.00416121259332,166.331136028748 168.26071372628212,170.25047968467698 169.38898999243975,173.51659756805748 167.6965756006539,176.12949067819864 166.00416121259332,179.3956055692397 163.18347055837512,181.35527370357886 159.79864178225398,183.31494123814628 156.97795113176107,184.62138593010604 153.59312235191464,187.8874964946881 149.6441554389894,189.8471620315686 146.25932665914297,191.8068269728683 142.3103597536683,193.7664913139306 138.92553097382188,195.72615505754948 134.4124259352684,197.6858182004653 130.46345902234316,197.0325972205028 125.95035398378968,197.6858182004653 122.00138707458973,198.99225996388122 117.48828203231096,200.2987014609389 114.10345325246453,202.25836320593953 110.7186244726181,204.2180243525654 106.76965756341815,205.52446478651837 103.38482878357172,206.17768490174785 100.00000000372529,208.13734484976158 96.05103309452534,209.4437844841741 92.10206618532538,211.40344343381003 88.71723740175366,212.7098824013956 85.33240862190723,214.0163211049512 81.38344171643257,214.66954035544768 77.99861293658614,214.66954035544768 74.61378415673971,216.6291977087967 70.66481724381447,217.28241669246927 67.84412659332156,219.89529196638614 63.89515968412161,220.54851061943918 60.51033090427518,222.50816617486998 57.12550212442875,223.16138456203043 54.30481147393584,224.4678211323917 50.35584456473589,225.12103931978345 46.97101578488946,225.12103931978345 43.0220488794148,224.4678211323917 41.32963448390365,219.89529196638614 39.63722009584308,215.97597865574062 38.50894383341074,212.05666295159608 37.94480570778251,208.13734484976158 36.25239131599665,205.52446478651837 33.995838794857264,202.25836320593953 35.1241150572896,198.99225996388122 35.688253186643124,196.37937617162243 37.38066757470369,193.7664913139306 35.1241150572896,189.8471620315686 33.43170066550374,186.58105246722698 32.86756253615022,181.35527370357886 32.303424406796694,178.08915981277823 33.43170066550374,175.47626750171185 31.73928627371788,172.8633741256781 31.73928627371788,167.63758418057114 32.86756253615022,165.0246876082383 31.73928627371788,160.45211604936048 31.175148148089647,155.87954122805968 30.611010015010834,151.96018878556788 31.175148148089647,148.04083394771442 31.73928627371788,144.7747030868195 32.303424406796694,140.8553438554518 31.73928627371788,135.62952782167122 31.175148148089647,131.7101629995741 31.175148148089647,127.79079578164965 33.995838794857264,124.52465460402891 37.94480570778251,121.91174046322703 41.32963448390365,119.95205415971577 44.714463263750076,117.33913815487176 48.66343017667532,115.37945045391098 52.04825895652175,114.07299165287986 55.43308773264289,110.15361365303397 58.81791651621461,107.54069365607575 61.638607166707516,105.5810029595159 64.45929781347513,104.27454216172919 67.84412659332156,102.3148504672572 70.66481724381447,99.70192727493122 74.0496460236609,97.74223418207839 77.99861293658614,96.43577178753912 81.38344171643257,95.1293091266416 84.76827049255371,93.82284619938582 88.15309927240014,92.51638300577179 92.10206618532538,92.51638300577179 95.48689496517181,90.55668771686032 98.30758561193943,89.25022385781631 101.69241439178586,88.59699182957411 104.51310504227877,87.94375973194838 108.46207195520401,87.29052757052705 111.84690073505044,86.63729534065351 114.66759138181806,85.98406304465607 117.48828203231096,84.67759825708345 120.87311081215739,83.3711331980303 123.6938014626503,82.06466787494719 127.07863024249673,80.10496939113364 129.89932088926435,78.79850340215489 134.4124259352684,77.49203714681789 137.79725471138954,77.49203714681789 141.18208349123597,76.83880391903222 144.5669122710824,75.53233726415783 147.95174105092883,74.87910383800045 149.6441554389894,78.79850340215489 150.77243170142174,82.71790056861937 152.4648460932076,85.98406304465607 153.02898422256112,89.25022385781631 152.4648460932076,92.51638300577179 151.90070796385407,95.78254049131647 153.02898422256112,99.70192727493122 153.59312235191464,103.62131166225299 154.15726048126817,106.8874634904787 155.84967487305403,110.80684348754585 156.97795113176107,114.07299165287986 158.67036551982164,117.99236725689843 159.23450365290046,121.25851176073775 159.79864178225398,125.17788297217339 162.05519430339336,128.44402381870896 163.18347055837512,131.7101629995741 164.31174682080746,134.32307314500213 162.6193324290216,138.89566334243864 162.6193324290216,142.16179719893262 163.74760869145393,145.4279293930158 164.31174682080746,149.34728582762182 166.00416121259332,152.61341435974464 167.13243747130036,156.53276640316471 168.26071372628212,161.1053407578729 168.82485185936093,164.37146330066025 170.5172662511468,167.63758418057114 171.08140438050032,170.25047968467698 172.20968063920736,174.1698209461756 171.64554250985384,178.74238272290677 169.95312812179327,180.70205105887726 167.13243747130036,182.6617187941447 163.18347055837512,185.27460817527026 160.3627799116075,186.58105246722698 156.97795113176107,188.5407184069045 153.59312235191464,190.5003837463446 150.77243170142174,193.11326993443072 147.3876029253006,194.41971262777224 144.5669122710824,195.72615505754948 141.7462216205895,197.6858182004653 138.36139284074306,198.99225996388122 134.97656406089664,199.6454807445407 131.02759715169668,199.6454807445407 127.07863024249673,200.2987014609389 123.6938014626503,200.95192210981622 120.30897268280387,202.25836320593953 117.48828203231096,204.2180243525654 114.10345325246453,204.87124460330233 110.15448634326458,206.83090495038778 107.33379569277167,208.13734484976158 104.51310504227877,209.4437844841741 101.69241439178586,210.7502238508314 98.30758561193943,212.05666295159608 94.922756832093,212.7098824013956 92.10206618532538,214.66954035544768 88.71723740175366,215.32275953842327 85.33240862190723,215.97597865574062 81.9475798420608,216.6291977087967 78.56275106593966,217.28241669246927 75.17792228609324,217.93563561094925 72.35723163187504,219.24207324860618 68.40826472640038,219.89529196638614 65.58757407218218,220.54851061943918 62.76688342541456,221.8549477220513 58.253778383135796,223.16138456203043 55.43308773264289,224.4678211323917 52.61239708587527,225.12103931978345 49.22756830602884,225.774257438723 45.84273952618241,224.4678211323917 43.58618700504303,223.16138456203043 40.76549635455012,219.89529196638614 40.76549635455012,215.32275953842327 40.2013582251966,212.7098824013956 37.94480570778251,210.09700420172885 36.25239131599665,206.17768490174785 35.688253186643124,202.25836320593953 37.38066757470369,198.3390391143039 35.688253186643124,194.41971262777224 33.43170066550374,190.5003837463446 33.995838794857264,186.58105246722698 33.43170066550374,183.96816361881793 32.86756253615022,178.74238272290677 32.86756253615022,175.47626750171185 31.175148148089647,168.94403206557035 30.611010015010834,166.331136028748 30.611010015010834,162.41178997512907 30.04687188565731,158.49244152754545 31.175148148089647,155.2263159886934 30.611010015010834,151.96018878556788 28.918595623224974,148.04083394771442 29.482733756303787,144.12147671543062 30.611010015010834,141.50857056071982 30.04687188565731,138.24243636988103 29.482733756303787,134.32307314500213 28.35445749759674,130.4037075266242 28.35445749759674,125.83111127465963 31.175148148089647,123.21819766657427 34.55997692793608,120.60528299352154 37.94480570778251,118.6455962904729 41.32963448390365,116.68590898718685 45.2786013931036,115.37945045391098 48.66343017667532,114.07299165287986 52.04825895652175,111.46007325313985 54.868949603289366,110.15361365303397 58.253778383135796,108.19392375601456 61.638607166707516,106.8874634904787 65.58757407218218,105.5810029595159 68.9724028557539,103.62131166225299 71.79309350252151,102.3148504672572 75.17792228609324,101.00838900450617 77.99861293658614,99.70192727493122 81.38344171643257,98.39546527946368 84.76827049255371,97.74223418207839 89.28137553110719,97.08900301717222 92.10206618532538,97.74223418207839 95.48689496517181,97.08900301717222 98.30758561193943,95.1293091266416 101.12827626243234,93.16961463633925 103.94896691292524,91.86315131001174 107.33379569277167,90.55668771686032 110.15448634326458,89.25022385781631 112.97517699375749,87.94375973194838 116.92414390295744,87.94375973194838 119.74483455345035,86.63729534065351 123.12966333329678,84.67759825708345 126.5144921131432,84.02436576085165 129.89932088926435,82.71790056861937 133.28414966911077,82.06466787494719 136.6689784526825,81.41143511189148 140.61794536188245,80.10496939113364 144.00277414172888,78.79850340215489 147.3876029253006,78.14527030708268 149.6441554389894,80.75820228457451 150.20829357206821,84.02436576085165 151.33656983077526,87.29052757052705 151.90070796385407,91.86315131001174 151.33656983077526,94.47607769584283 151.90070796385407,98.39546527946368 151.90070796385407,101.00838900450617 153.59312235191464,105.5810029595159 154.7213986106217,108.84715378843248 155.2855367399752,112.76653258595616 156.97795113176107,115.37945045391098 157.5420892611146,119.2988252597861 159.23450365290046,122.56496909912676 161.49105617031455,125.17788297217339 162.05519430339336,129.75047968979925 161.49105617031455,133.01661820616573 160.3627799116075,136.93598222965375 161.49105617031455,140.8553438554518 163.18347055837512,144.12147671543062 164.31174682080746,147.38760790787637 164.87588495388627,151.30696314619854 166.00416121259332,153.91986530739814 167.13243747130036,157.1859915116802 167.13243747130036,160.45211604936048 168.26071372628212,163.71823892602697 169.95312812179327,166.331136028748 171.08140438050032,169.59725590934977 171.64554250985384,172.8633741256781 171.08140438050032,177.43593683373183 169.38898999243975,180.0488283461891 166.00416121259332,181.35527370357886 163.18347055837512,183.31494123814628 160.3627799116075,184.62138593010604 157.5420892611146,186.58105246722698 154.15726048126817,189.19394025253132 151.90070796385407,191.15360539220273 149.08001730963588,192.4600484878756 145.13105040043592,194.41971262777224 142.3103597536683,195.0729338764213 137.79725471138954,195.72615505754948 134.97656406089664,197.0325972205028 131.02759715169668,195.72615505754948 128.7710446305573,197.0325972205028 125.95035398378968,199.6454807445407 122.56552520394325,200.95192210981622 118.61655829101801,202.25836320593953 115.23172951117158,202.91158365411684 112.41103886067867,203.56480403756723 109.02621008455753,203.56480403756723 105.6413813047111,203.56480403756723 102.25655252113938,203.56480403756723 98.87172374501824,204.2180243525654 95.48689496517181,204.87124460330233 92.66620431467891,206.17768490174785 89.28137553110719,206.83090495038778 86.46068488433957,208.13734484976158 82.51171797513962,209.4437844841741 79.12688919529319,209.4437844841741 75.74206041172147,210.7502238508314 72.35723163187504,212.05666295159608 68.9724028557539,213.36310178693384 65.58757407218218,214.66954035544768 62.20274529606104,215.32275953842327 59.38205464184284,217.28241669246927 54.30481147393584,219.24207324860618 50.91998269408941,220.54851061943918 48.099292047321796,221.20172920357436 44.714463263750076,221.8549477220513 40.2013582251966,220.54851061943918 37.94480570778251,216.6291977087967 36.81652944535017,212.7098824013956 36.81652944535017,210.09700420172885 36.81652944535017,205.52446478651837 35.1241150572896,201.60514269117266 35.1241150572896,198.3390391143039 34.55997692793608,194.41971262777224 34.55997692793608,191.8068269728683 33.995838794857264,186.58105246722698 33.43170066550374,183.31494123814628 32.86756253615022,180.70205105887726 32.303424406796694,177.43593683373183 32.86756253615022,174.1698209461756 31.73928627371788,170.25047968467698 32.303424406796694,167.63758418057114 31.175148148089647,163.71823892602697 32.303424406796694,159.79889127472416 32.303424406796694,155.87954122805968 32.303424406796694,151.96018878556788 30.611010015010834,147.38760790787637 30.611010015010834,142.81502376962453 32.86756253615022,139.5488902456127 30.611010015010834,132.36339063709602 30.04687188565731,128.44402381870896 29.482733756303787,123.87142616929486 31.73928627371788,120.60528299352154 35.1241150572896,119.2988252597861 38.50894383341074,117.33913815487176 41.89377261325717,116.03267975430936 45.2786013931036,114.72622108785436 48.66343017667532,110.15361365303397 51.484120823442936,106.23423325968906 54.868949603289366,104.92777259508148 58.81791651621461,103.62131166225299 61.638607166707516,102.3148504672572 65.02343594655395,100.3551581739448 68.9724028557539,99.04869630979374 72.35723163187504,97.08900301717222 75.17792228609324,96.43577178753912 78.56275106593966,95.78254049131647 81.9475798420608,93.16961463633925 85.33240862190723,92.51638300577179 88.71723740175366,92.51638300577179 92.10206618532538,92.51638300577179 96.05103309452534,91.86315131001174 98.87172374501824,91.20991954533383 101.69241439178586,89.9034558199346 105.07724317535758,89.25022385781631 108.46207195520401,87.94375973194838 111.84690073505044,87.29052757052705 114.66759138181806,85.98406304465607 118.05242016166449,84.67759825708345 121.4372489452362,83.3711331980303 123.6938014626503,82.06466787494719 127.07863024249673,80.75820228457451 130.46345902234316,79.4517364287749 133.8482878021896,78.14527030708268 137.23311658203602,76.83880391903222 140.05380723252892,74.87910383800045 143.43863601237535,73.57263678452 147.3876029253006,73.57263678452 149.08001730963588,77.49203714681789 151.33656983077526,80.75820228457451 151.90070796385407,84.67759825708345 152.4648460932076,87.94375973194838 151.90070796385407,92.51638300577179 151.90070796385407,96.43577178753912 151.90070796385407,101.00838900450617 153.02898422256112,104.92777259508148 154.7213986106217,108.84715378843248 156.41381300240755,112.11330295167863 156.97795113176107,115.37945045391098 158.10622739046812,119.2988252597861 159.23450365290046,122.56496909912676 159.79864178225398,126.4843395119533 161.49105617031455,129.75047968979925 162.05519430339336,133.01661820616573 162.05519430339336,135.62952782167122 160.3627799116075,139.5488902456127 162.05519430339336,142.81502376962453 163.74760869145393,146.7343818033114 165.4400230795145,150.00051166815683 165.4400230795145,153.91986530739814 166.56829934194684,158.49244152754545 167.13243747130036,162.41178997512907 168.26071372628212,165.67791185202077 169.38898999243975,168.94403206557035 170.5172662511468,172.21015061577782 171.08140438050032,176.12949067819864 169.95312812179327,179.3956055692397 166.56829934194684,180.70205105887726 163.74760869145393,182.00849628122523 161.49105617031455,183.31494123814628 158.10622739046812,184.62138593010604 155.2855367399752,187.2342745140195 152.4648460932076,189.19394025253132 149.08001730963588,190.5003837463446 146.25932665914297,191.8068269728683 142.87449787929654,193.11326993443072 140.05380723252892,193.7664913139306 137.23311658203602,195.0729338764213 133.8482878021896,196.37937617162243 129.89932088926435,195.0729338764213 126.5144921131432,197.6858182004653 123.6938014626503,199.6454807445407 120.87311081215739,201.60514269117266 117.48828203231096,202.91158365411684 114.66759138181806,204.87124460330233 112.41103886067867,206.17768490174785 109.02621008455753,206.83090495038778 105.6413813047111,208.7905646986328 102.8206906542182,210.09700420172885 99.43586187064648,211.40344343381003 95.48689496517181,212.7098824013956 92.10206618532538,214.66954035544768 89.84551366046071,215.97597865574062 85.89654675498605,216.6291977087967 83.07585610449314,215.97597865574062 78.56275106593966,215.97597865574062 74.61378415673971,216.6291977087967 70.66481724381447,217.93563561094925 66.71585033461452,219.24207324860618 63.331021554768085,220.54851061943918 59.38205464184284,222.50816617486998 55.43308773264289,223.81460288073868 51.484120823442936,223.81460288073868 46.97101578488946,223.16138456203043 44.15032513812184,219.89529196638614 42.45791074633598,215.32275953842327 41.89377261325717,212.05666295159608 41.32963448390365,208.13734484976158 39.07308196648955,206.17768490174785 36.81652944535017,203.56480403756723 35.688253186643124,200.2987014609389 35.1241150572896,197.0325972205028 34.55997692793608,193.7664913139306 32.303424406796694,189.8471620315686 30.611010015010834,185.9278303552419 32.303424406796694,182.6617187941447 32.86756253615022,178.74238272290677 33.43170066550374,175.47626750171185 32.86756253615022,172.21015061577782 32.303424406796694,167.63758418057114 32.86756253615022,163.71823892602697 32.303424406796694,160.45211604936048 32.303424406796694,156.53276640316471 31.73928627371788,152.61341435974464 30.611010015010834,148.69405992235988 32.303424406796694,146.08115563122556 31.175148148089647,135.62952782167122 30.611010015010834,131.0569352968596 31.73928627371788,127.79079578164965 35.1241150572896,125.83111127465963 37.94480570778251,123.21819766657427 41.32963448390365,121.25851176073775 44.15032513812184,117.99236725689843 47.53515391796827,116.03267975430936 50.91998269408941,112.76653258595616 54.30481147393584,110.15361365303397 57.68964025378227,107.54069365607575 60.51033090427518,105.5810029595159 63.89515968412161,102.96808109804988 67.27998846396804,101.00838900450617 70.10067911446095,99.70192727493122 74.0496460236609,97.74223418207839 77.43447480350733,97.08900301717222 80.81930358335376,95.1293091266416 84.20413236320019,93.82284619938582 87.58896114304662,93.16961463633925 90.97378992661834,93.16961463633925 94.35861870273948,92.51638300577179 97.7434474825859,91.20991954533383 100.56413813307881,89.9034558199346 103.94896691292524,89.25022385781631 106.76965756341815,89.25022385781631 110.15448634326458,87.29052757052705 112.97517699375749,85.33083068253472 116.36000577360392,84.02436576085165 119.18069642037153,82.71790056861937 122.00138707458973,81.41143511189148 125.38621585443616,80.75820228457451 128.20690650120378,80.75820228457451 131.5917352810502,79.4517364287749 134.4124259352684,78.14527030708268 137.79725471138954,78.14527030708268 140.61794536188245,76.83880391903222 144.00277414172888,74.87910383800045 147.3876029253006,74.22587034478784 148.51587918028235,77.49203714681789 150.77243170142174,81.41143511189148 151.90070796385407,84.67759825708345 151.33656983077526,89.25022385781631 151.33656983077526,93.16961463633925 151.33656983077526,96.43577178753912 150.77243170142174,100.3551581739448 152.4648460932076,104.27454216172919 154.15726048126817,107.54069365607575 154.7213986106217,110.80684348754585 156.41381300240755,115.37945045391098 156.97795113176107,118.6455962904729 157.5420892611146,122.56496909912676 159.23450365290046,126.4843395119533 160.3627799116075,129.75047968979925 160.3627799116075,133.01661820616573 158.67036551982164,136.2827550577931 160.3627799116075,140.8553438554518 161.49105617031455,145.4279293930158 163.18347055837512,149.34728582762182 164.31174682080746,152.61341435974464 164.31174682080746,155.87954122805968 165.4400230795145,159.14566643396392 166.56829934194684,163.06501448526978 167.6965756006539,167.63758418057114 168.82485185936093,170.90370339620858 168.82485185936093,174.1698209461756 168.82485185936093,178.08915981277823 166.56829934194684,180.70205105887726 163.18347055837512,183.31494123814628 160.3627799116075,185.27460817527026 156.97795113176107,185.9278303552419 153.59312235191464,187.2342745140195 150.20829357206821,189.19394025253132 146.25932665914297,190.5003837463446 142.87449787929654,191.8068269728683 139.4896691031754,192.4600484878756 136.6689784526825,193.7664913139306 133.28414966911077,195.0729338764213 129.3351827636361,194.41971262777224 125.95035398378968,195.72615505754948 123.12966333329678,197.0325972205028 119.74483455345035,198.3390391143039 116.92414390295744,199.6454807445407 114.10345325246453,201.60514269117266 110.7186244726181,202.91158365411684 107.33379569277167,204.2180243525654 103.94896691292524,204.87124460330233 100.56413813307881,205.52446478651837 97.17930935323238,206.83090495038778 93.79448057338595,207.48412493476644 90.40965179353952,208.7905646986328 87.0248230136931,209.4437844841741 84.20413236320019,209.4437844841741 80.81930358335376,211.40344343381003 77.43447480350733,211.40344343381003 74.0496460236609,212.05666295159608 71.22895537316799,214.0163211049512 67.84412659332156,214.66954035544768 64.45929781347513,215.97597865574062 61.638607166707516,217.28241669246927 58.253778383135796,218.58885446423665 55.43308773264289,219.89529196638614 52.04825895652175,221.20172920357436 48.099292047321796,221.8549477220513 44.714463263750076,222.50816617486998 41.89377261325717,221.8549477220513 39.07308196648955,217.93563561094925 37.94480570778251,214.0163211049512 37.94480570778251,210.09700420172885 36.25239131599665,205.52446478651837 34.55997692793608,202.91158365411684 33.995838794857264,198.3390391143039 33.43170066550374,195.0729338764213 32.303424406796694,190.5003837463446 31.175148148089647,186.58105246722698 31.175148148089647,182.6617187941447 33.43170066550374,180.0488283461891 33.995838794857264,176.78271379042417 33.43170066550374,173.51659756805748 32.86756253615022,170.25047968467698 32.86756253615022,166.331136028748 32.303424406796694,162.41178997512907 33.43170066550374,158.49244152754545 35.688253186643124,156.53276640316471 37.38066757470369,153.91986530739814 35.1241150572896,148.69405992235988 36.25239131599665,144.12147671543062 36.25239131599665,139.5488902456127 35.1241150572896,134.97630051709712 33.995838794857264,129.75047968979925 37.38066757470369,127.13756768032908 40.2013582251966,124.52465460402891 43.0220488794148,122.56496909912676 45.84273952618241,119.95205415971577 48.099292047321796,117.99236725689843 51.484120823442936,115.37945045391098 53.74067334458232,113.41976215410978 57.12550212442875,111.46007325313985 60.51033090427518,110.15361365303397 62.76688342541456,108.84715378843248 65.02343594655395,105.5810029595159 66.15171220526099,102.3148504672572 67.84412659332156,99.70192727493122 68.9724028557539,97.08900301717222 71.22895537316799,94.47607769584283" stroke="#4DD2FF" stroke-linecap="round" stroke-linejoin="round" stroke-width="0.5"><title>2023-03-02 10.3km</title></polyline></svg>